<?xml version="1.0" standalone="no"?>
<!DOCTYPE svg PUBLIC "-//W3C//DTD SVG 20010904//EN"
        "http://www.w3.org/TR/2001/REC-SVG-20010904/DTD/svg10.dtd">
<svg version="1.0" xmlns="http://www.w3.org/2000/svg"
     width="297.000000pt" height="172.000000pt" viewBox="0 0 297.000000 172.000000"
     preserveAspectRatio="xMidYMid meet">

    <g transform="translate(0.000000,172.000000) scale(0.100000,-0.100000)"
       fill="#000000" stroke="none">
        <path d="M2704 1444 c-17 -8 -40 -32 -52 -53 -38 -68 -52 -297 -32 -531 l9
-105 -28 -28 c-15 -16 -45 -34 -67 -42 -43 -15 -60 -34 -51 -59 11 -27 76 -20
131 14 l48 31 30 -26 c34 -29 63 -38 104 -33 23 2 29 8 29 27 0 25 -8 31 -62
51 -46 17 -50 42 -14 94 46 66 96 172 123 256 18 60 23 97 23 190 0 100 -3
120 -23 157 -36 68 -101 90 -168 57z m108 -102 c16 -40 13 -178 -6 -250 -21
-81 -72 -206 -97 -235 -19 -22 -20 -20 -16 213 2 161 8 245 17 268 22 58 79
60 102 4z"/>
        <path d="M846 1241 c-25 -27 -17 -72 15 -90 24 -13 29 -13 53 2 47 31 27 107
-28 107 -13 0 -31 -9 -40 -19z"/>
        <path d="M72 928 l3 -313 35 0 35 0 5 218 5 218 82 -166 83 -165 35 0 35 0 83
165 82 166 5 -218 5 -218 35 0 35 0 3 313 2 313 -37 -3 -38 -3 -101 -200 c-56
-110 -105 -199 -110 -198 -4 0 -53 90 -108 200 l-101 198 -38 3 -37 3 2 -313z"/>
        <path d="M856 1018 c-2 -7 -7 -56 -10 -109 -3 -54 -13 -115 -22 -138 -18 -46
-65 -91 -94 -91 -23 0 -42 -32 -34 -54 13 -34 118 -8 149 37 14 19 14 19 40
-11 51 -60 132 -60 201 0 34 30 35 31 49 11 37 -53 161 -71 223 -33 52 32 40
-2 -15 -43 -104 -77 -154 -154 -161 -247 -3 -40 1 -66 12 -89 51 -98 209 -94
254 7 15 33 17 81 17 402 l0 365 -37 3 c-33 3 -38 1 -38 -19 0 -21 -1 -21 -19
-5 -23 21 -86 31 -136 22 -75 -14 -144 -107 -145 -196 0 -53 -33 -118 -71
-139 -30 -17 -73 -9 -85 16 -4 10 -10 86 -13 168 l-6 150 -28 3 c-16 2 -29 -2
-31 -10z m510 -89 c21 -19 24 -32 24 -87 0 -76 -21 -127 -61 -147 -55 -29
-124 -10 -147 40 -17 37 -15 120 3 156 36 68 128 88 181 38z m19 -607 c-18
-99 -125 -91 -125 8 0 58 20 98 76 153 l49 49 3 -89 c2 -48 0 -103 -3 -121z"/>
        <path d="M1705 1018 c-2 -7 -6 -56 -9 -108 -3 -52 -11 -112 -17 -133 -14 -43
-69 -97 -99 -97 -23 0 -39 -26 -33 -51 11 -41 119 -11 157 43 14 19 15 19 48
-17 29 -32 42 -38 86 -43 69 -6 116 4 150 33 l29 24 23 -24 c35 -37 81 -46
146 -29 31 8 65 19 75 25 16 8 30 5 64 -11 28 -13 58 -20 82 -18 35 3 38 6 38
33 0 27 -4 30 -38 36 -20 3 -40 9 -43 12 -6 6 45 56 58 57 3 0 20 21 37 47 24
36 31 57 31 95 0 95 -52 144 -142 136 -108 -11 -164 -130 -123 -264 8 -27 15
-50 15 -51 0 -8 -77 -33 -100 -33 -55 0 -64 26 -70 194 l-5 151 -30 0 -30 0
-7 -122 c-8 -127 -18 -162 -58 -198 -32 -29 -102 -27 -132 3 -21 21 -23 32
-26 165 -2 94 -8 144 -15 149 -19 12 -57 9 -62 -4z m704 -89 c21 -37 7 -74
-49 -133 l-49 -51 -10 28 c-6 16 -11 53 -11 83 0 45 4 59 25 80 32 32 74 29
94 -7z"/>
    </g>
</svg>
